<svg id="Layer_2" data-name="Layer 2" xmlns="http://www.w3.org/2000/svg" viewBox="0 0 29 26.87"><defs><style>.cls-1{fill:#3e3eff;}.cls-2,.cls-3{fill:none;}.cls-3{stroke:#3e3eff;}</style></defs><g id="그룹_4" data-name="그룹 4"><path id="빼기_3" data-name="빼기 3" class="cls-1" d="M85.37,84.3h-29a12.2,12.2,0,0,1,1.39-4.86,12.68,12.68,0,0,1,1.38-2.1,13.33,13.33,0,0,1,1.77-1.83,14.72,14.72,0,0,1,3-2,8.8,8.8,0,0,0,1.37,1.29,8.51,8.51,0,0,0,1.65,1,8.84,8.84,0,0,0,1.88.63,10,10,0,0,0,2.05.21,9.47,9.47,0,0,0,3.92-.84,8.55,8.55,0,0,0,1.65-1,7.91,7.91,0,0,0,1.37-1.28,14.72,14.72,0,0,1,3,2,12.77,12.77,0,0,1,1.77,1.83A13.4,13.4,0,0,1,84,79.44a12.53,12.53,0,0,1,1.39,4.86Z" transform="translate(-56.37 -57.43)"/><g id="타원_4" data-name="타원 4"><ellipse class="cls-2" cx="14.5" cy="8.75" rx="8.78" ry="8.75"/><ellipse class="cls-3" cx="14.5" cy="8.75" rx="8.28" ry="8.25"/></g></g></svg>