<svg xmlns="http://www.w3.org/2000/svg" width="30" height="45" viewBox="0 0 30 45">
    <defs>
        <style>
            .cls-1{fill:#3e3eff}.cls-2{fill:#fff}
        </style>
    </defs>
    <g id="그룹_43" data-name="그룹 43" transform="translate(-1020.766 -684)">
        <path id="사각형_151" data-name="사각형 151" class="cls-1" transform="translate(1020.766 702)" d="M0 0h30v27H0z"/>
        <path id="빼기_6" data-name="빼기 6" class="cls-1" d="M13 45A13 13 0 0 1 0 32V16a13 13 0 0 1 22.193-9.193A12.916 12.916 0 0 1 26 16v16a13 13 0 0 1-13 13zm0-37.6a8.527 8.527 0 0 0-8.518 8.518v15.164a8.517 8.517 0 1 0 17.034 0V15.917A8.527 8.527 0 0 0 13 7.4z" transform="translate(1022.766 681)"/>
        <ellipse id="타원_46" data-name="타원 46" class="cls-2" cx="4.5" cy="4" rx="4.5" ry="4" transform="translate(1031.766 714)"/>
        <path id="사각형_154" data-name="사각형 154" class="cls-2" transform="translate(1034.766 708)" d="M0 0h3v8H0z"/>
    </g>
</svg>
