<svg id="Layer_3" data-name="Layer 3" xmlns="http://www.w3.org/2000/svg" viewBox="0 0 27.5 24.25"><defs><style>.cls-1{fill:#3d44f5;}.cls-2{fill:#fff;}.cls-3{fill:#7f7f7f;}.cls-4{fill:#707070;}.cls-5{fill:none;stroke:#707070;}</style></defs><g id="그룹_5" data-name="그룹 5"><g id="합치기_3" data-name="합치기 3"><path class="cls-1" d="M58.38,82.08,59.32,78l.14-.62h-.83a3.5,3.5,0,0,1-3.5-3.5V66.36a3.5,3.5,0,0,1,3.5-3.5h15.5a3.5,3.5,0,0,1,3.5,3.5V73.9a3.5,3.5,0,0,1-3.5,3.5H63.23l-.14.14Z" transform="translate(-54.63 -62.36)"/><path class="cls-1" d="M59.25,80.55,63,76.9h11.1a3,3,0,0,0,3-3V66.36a3,3,0,0,0-3-3H58.63a3,3,0,0,0-3,3V73.9a3,3,0,0,0,3,3h1.46l-.84,3.65m-1.74,3.06,1.32-5.71h-.2a4,4,0,0,1-4-4V66.36a4,4,0,0,1,4-4h15.5a4,4,0,0,1,4,4V73.9a4,4,0,0,1-4,4H63.43Z" transform="translate(-54.63 -62.36)"/></g><g id="합치기_2" data-name="합치기 2"><path class="cls-2" d="M78.45,85.06l-4.59-4.51-.14-.15H63.13a3.5,3.5,0,0,1-3.5-3.5V69.36a3.5,3.5,0,0,1,3.5-3.5h15a3.5,3.5,0,0,1,3.5,3.5V76.9a3.5,3.5,0,0,1-3.5,3.5h-.74l.13.61Z" transform="translate(-54.63 -62.36)"/><path class="cls-3" d="M77.58,83.5l-.82-3.6h1.37a3,3,0,0,0,3-3V69.36a3,3,0,0,0-3-3h-15a3,3,0,0,0-3,3V76.9a3,3,0,0,0,3,3H73.92l3.66,3.6m1.73,3.11-5.8-5.71H63.13a4,4,0,0,1-4-4V69.36a4,4,0,0,1,4-4h15a4,4,0,0,1,4,4V76.9a4,4,0,0,1-4,4H78Z" transform="translate(-54.63 -62.36)"/></g><g id="타원_8" data-name="타원 8"><circle class="cls-4" cx="11" cy="11" r="1.5"/><circle class="cls-5" cx="11" cy="11" r="1"/></g><g id="타원_9" data-name="타원 9"><circle class="cls-4" cx="16" cy="11" r="1.5"/><circle class="cls-5" cx="16" cy="11" r="1"/></g><g id="타원_10" data-name="타원 10"><circle class="cls-4" cx="21" cy="11" r="1.5"/><circle class="cls-5" cx="21" cy="11" r="1"/></g></g></svg>