<svg id="Layer_2" data-name="Layer 2" xmlns="http://www.w3.org/2000/svg" viewBox="0 0 28.15 33.11"><defs><style>.cls-1{fill:#fff;}.cls-2,.cls-4{fill:none;stroke:#7f7f80;}.cls-2{stroke-width:3px;}.cls-3{fill:#7f7f80;}</style></defs><g id="그룹_3" data-name="그룹 3"><g id="타원_3" data-name="타원 3"><circle class="cls-1" cx="11.5" cy="11.5" r="11.5"/><circle class="cls-2" cx="11.5" cy="11.5" r="10"/></g><g id="사각형_8" data-name="사각형 8"><path class="cls-3" d="M133.86,125.9h0a3,3,0,0,1,4.18.73l6.31,9a3,3,0,0,1-.73,4.18h0a3,3,0,0,1-4.18-.73l-6.32-9A3,3,0,0,1,133.86,125.9Z" transform="translate(-116.75 -107.25)"/><path class="cls-4" d="M134.15,126.31h0a2.49,2.49,0,0,1,3.48.61l6.31,9a2.49,2.49,0,0,1-.61,3.48h0a2.5,2.5,0,0,1-3.48-.61l-6.32-9A2.5,2.5,0,0,1,134.15,126.31Z" transform="translate(-116.75 -107.25)"/></g></g></svg>