<svg xmlns="http://www.w3.org/2000/svg" width="29.799" height="25.779" viewBox="0 0 29.799 25.779">
    <defs>
        <style>
            .cls-4,.cls-6{stroke:none}.cls-6{fill:#707070}
        </style>
    </defs>
    <g id="그룹_17" data-name="그룹 17" transform="translate(-369 -286)">
        <g id="사각형_88" data-name="사각형 88" style="fill:#fff;stroke:#707070">
            <path class="cls-4" d="M0 0h19.624v16.716H0z" transform="translate(374.088 295.063)"/>
            <path style="fill:none" d="M.5.5h18.624v15.716H.5z" transform="translate(374.088 295.063)"/>
        </g>
        <g id="다각형_2" data-name="다각형 2" style="fill:#3e3eff">
            <path class="cls-4" d="M28.472 12.582H1.327L14.9.665l13.573 11.917z" transform="translate(369 286)"/>
            <path class="cls-6" d="M14.9 1.33 2.653 12.083h24.49L14.9 1.331M14.9 0l14.9 13.082H0L14.9 0z" transform="translate(369 286)"/>
        </g>
        <g id="합치기_5" data-name="합치기 5" style="fill:#a8acff">
            <path class="cls-4" d="M7.495 9.129H.5V3.187l.013-.124C.67 1.626 2.2.5 3.997.5c1.798 0 3.328 1.126 3.484 2.563l.014.123v5.943z" transform="translate(379.902 302.15)"/>
            <path class="cls-6" d="M6.995 8.629V3.213l-.01-.096C6.854 1.93 5.542 1 3.996 1c-1.545 0-2.857.93-2.986 2.117L1 3.214v5.415h5.995m1 1H0v-6.62h.016C.2 1.322 1.912 0 3.997 0c2.086 0 3.798 1.322 3.981 3.01h.017v6.619z" transform="translate(379.902 302.15)"/>
        </g>
    </g>
</svg>
