<svg xmlns="http://www.w3.org/2000/svg" width="109.002" height="79.001" viewBox="0 0 109.002 79.001">
    <defs>
        <style>
            .cls-3{fill:#a8acff;stroke:#707070}.cls-5{stroke:none}.cls-7{fill:none}
        </style>
    </defs>
    <g id="그룹_46" data-name="그룹 46" transform="translate(-962.419 -620.058)" style="opacity:.8">
        <g id="빼기_5" data-name="빼기 5" style="fill:#fff">
            <path class="cls-5" d="M-7676.583 112.558h-86.997a10.433 10.433 0 0 1-7.426-3.075 10.432 10.432 0 0 1-3.077-7.425V52.992c0-2.805 1.093-5.442 3.077-7.426a10.438 10.438 0 0 1 7.426-3.075h3.496v.066h18v-.066h7.132v-7.933h29.74v7.933h28.629c2.803 0 5.44 1.092 7.425 3.075a10.434 10.434 0 0 1 3.077 7.426v49.066c0 2.804-1.093 5.441-3.077 7.425a10.434 10.434 0 0 1-7.425 3.075z" transform="translate(8737.002 586)"/>
            <path d="M-7676.583 112.058a9.937 9.937 0 0 0 7.072-2.928 9.937 9.937 0 0 0 2.93-7.072V52.992c0-2.671-1.04-5.183-2.93-7.072a9.945 9.945 0 0 0-7.072-2.929h-29.128v-7.933h-28.741v7.933h-7.131v.066h-19.001v-.066h-2.996a9.942 9.942 0 0 0-7.072 2.929 9.936 9.936 0 0 0-2.931 7.072v49.066a9.936 9.936 0 0 0 2.93 7.072 9.935 9.935 0 0 0 7.073 2.928h86.997m0 1h-86.997c-2.94 0-5.702-1.144-7.78-3.221a10.928 10.928 0 0 1-3.223-7.78V52.993c0-2.938 1.145-5.701 3.224-7.78a10.935 10.935 0 0 1 7.779-3.221h3.996v.066h17v-.066h7.132v-7.933h30.74v7.933h28.129c2.937 0 5.7 1.144 7.779 3.221a10.93 10.93 0 0 1 3.223 7.78v49.066c0 2.937-1.145 5.7-3.223 7.779a10.93 10.93 0 0 1-7.78 3.221z" style="fill:#707070;stroke:none" transform="translate(8737.002 586)"/>
        </g>
        <g id="타원_41" data-name="타원 41" class="cls-3" transform="translate(992.418 640.058)">
            <circle class="cls-5" cx="24" cy="24" r="24"/>
            <circle class="cls-7" cx="24" cy="24" r="23.5"/>
        </g>
        <g id="타원_42" data-name="타원 42" transform="translate(1001.418 649.058)" style="stroke:#707070;fill:#fff">
            <ellipse class="cls-5" cx="15" cy="15.5" rx="15" ry="15.5"/>
            <ellipse class="cls-7" cx="15" cy="15.5" rx="14.5" ry="15"/>
        </g>
        <g id="타원_43" data-name="타원 43" class="cls-3" transform="translate(1047.418 635.058)">
            <circle class="cls-5" cx="7" cy="7" r="7"/>
            <circle class="cls-7" cx="7" cy="7" r="6.5"/>
        </g>
    </g>
</svg>
